<svg xmlns="http://www.w3.org/2000/svg" class="detail convertSvgInline replaced-svg" id="imgView" style="" viewBox="0 0 548.157 548.157" x="0px" y="0px" width="256px" height="256px" data-kw="double31" data-id="25454" xmlns:xml="http://www.w3.org/XML/1998/namespace" xml:space="preserve" version="1.1">
<g>
	<path d="M 545.027 112.765 c -3.046 -6.471 -7.57 -11.657 -13.565 -15.555 c -5.996 -3.9 -12.614 -5.852 -19.846 -5.852 H 292.351 c -11.04 0 -20.175 4.184 -27.408 12.56 L 9.13 396.279 c -4.758 5.328 -7.661 11.56 -8.708 18.698 c -1.049 7.139 -0.144 13.941 2.712 20.417 c 3.044 6.468 7.564 11.652 13.561 15.553 c 5.997 3.898 12.612 5.853 19.845 5.853 h 219.268 c 11.042 0 20.177 -4.179 27.41 -12.56 l 255.813 -292.363 c 4.75 -5.33 7.655 -11.561 8.699 -18.699 C 548.788 126.039 547.877 119.238 545.027 112.765 Z M 255.811 420.254 H 36.54 l 95.93 -109.632 h 219.27 L 255.811 420.254 Z" />
</g>
<g>
</g>
<g>
</g>
<g>
</g>
<g>
</g>
<g>
</g>
<g>
</g>
<g>
</g>
<g>
</g>
<g>
</g>
<g>
</g>
<g>
</g>
<g>
</g>
<g>
</g>
<g>
</g>
<g>
</g>
</svg>