<svg xmlns="http://www.w3.org/2000/svg" class="detail convertSvgInline replaced-svg" id="imgView" style="" viewBox="0 0 489.633 489.633" x="0px" y="0px" width="256px" height="256px" data-kw="pencils6" data-id="73506" xmlns:xml="http://www.w3.org/XML/1998/namespace" xml:space="preserve" version="1.1">
<g>
	<path d="M 484.732 72.193 L 417.458 4.887 C 414.329 1.76 410.076 0 405.663 0 c -4.414 0 -8.663 1.76 -11.79 4.887 L 356.34 42.424 l 90.868 90.872 l 37.524 -37.522 C 491.244 89.26 491.244 78.707 484.732 72.193 Z" />
	<polygon points="331.52,67.257 422.388,158.131 435.418,145.086 344.545,54.215" />
	<path d="M 294.878 103.885 L 38.874 359.902 c -1.824 1.826 -3.211 4.043 -4.038 6.482 L 0.879 467.646 c -2.002 6.01 -0.457 12.619 4.025 17.1 c 3.173 3.18 7.44 4.887 11.79 4.887 c 1.774 0 3.567 -0.277 5.309 -0.863 l 101.246 -33.973 c 2.456 -0.83 4.673 -2.196 6.494 -4.021 l 256.003 -256.018 L 294.878 103.885 Z M 65.578 379.893 c 6.713 1.788 20.7 8.659 28.113 16.066 c 9.68 9.698 14.701 20.783 15.871 27.984 l -66.407 22.551 L 65.578 379.893 Z" />
	<polygon points="306.668,92.094 397.541,182.964 410.598,169.918 319.73,79.046" />
</g>
<g>
</g>
<g>
</g>
<g>
</g>
<g>
</g>
<g>
</g>
<g>
</g>
<g>
</g>
<g>
</g>
<g>
</g>
<g>
</g>
<g>
</g>
<g>
</g>
<g>
</g>
<g>
</g>
<g>
</g>
</svg>